<?xml version="1.0" encoding="UTF-8"?>
<svg width="25px" height="24px" viewBox="0 0 25 24" version="1.1" xmlns="http://www.w3.org/2000/svg" xmlns:xlink="http://www.w3.org/1999/xlink">
    <title>sydney-opera-house</title>
    <g id="Page-1" stroke="none" stroke-width="1" fill="none" fill-rule="evenodd">
        <g id="Home-page-Copy" transform="translate(-39.000000, -142.000000)" fill="#286BB3" fill-rule="nonzero">
            <g id="sydney-opera-house" transform="translate(39.000000, 140.812500)">
                <path d="M24.5801101,11.8502131 L22.4681481,9.90658838 L22.4681481,3.46171995 C22.4681481,3.05165069 22.1389978,2.71915677 21.7329433,2.71915677 L16.649205,2.71915677 C16.2431993,2.71915677 15.9140002,3.05160137 15.9140002,3.46171995 L15.9140002,3.8746989 L13.3634152,1.52736678 C12.8710814,1.07419463 12.12865,1.07424395 11.6365116,1.52731747 L0.419816626,11.8502624 C0.0254808386,12.2132341 -0.104841377,12.7724867 0.0878343304,13.2749757 C0.280558866,13.7774646 0.749796968,14.1021172 1.28334169,14.1021172 L3.07479608,14.1021172 L3.07479608,24.4448875 C3.07479608,24.8549568 3.40394635,25.1875 3.81000088,25.1875 L9.95809423,25.1875 C10.3640999,25.1875 10.693299,24.8550061 10.693299,24.4448875 L10.693299,18.1650824 L14.3066277,18.1650824 L14.3066277,24.4449368 C14.3066277,24.8550061 14.635778,25.1875 15.0418325,25.1875 L21.1896817,25.1875 C21.5956874,25.1875 21.9248865,24.8550554 21.9248377,24.4449368 L21.9248377,14.1021665 L23.7166827,14.1021665 C24.2501786,14.1021665 24.7194656,13.7774646 24.9121901,13.275025 C25.104817,12.7724867 24.9745436,12.2132341 24.5801101,11.8502131 Z M21.1896817,12.6170402 C20.783676,12.6170402 20.4544769,12.9494848 20.4544769,13.3596033 L20.4544769,23.7023736 L15.7770862,23.7023736 L15.7770862,17.4225192 C15.7770862,17.01245 15.4478871,16.6799561 15.0418814,16.6799561 L9.95809423,16.6799561 C9.55208853,16.6799561 9.22288944,17.0124007 9.22288944,17.4225192 L9.22288944,23.7023736 L4.54515685,23.7023736 L4.54515685,13.3596033 C4.54515685,12.9495341 4.21600658,12.6170402 3.80995205,12.6170402 L1.76976728,12.6170402 L12.5000366,2.7418425 L16.1541368,6.10480496 C16.3693711,6.30286126 16.6800643,6.35390416 16.946324,6.2351986 C17.2126325,6.11634509 17.3844586,5.8499357 17.3844586,5.55590889 L17.3844586,4.20428313 L20.9978361,4.20428313 L20.9978361,10.2345452 C20.9978361,10.4435005 21.0849455,10.6426911 21.2378751,10.7834412 L23.2302083,12.6170402 L21.1896817,12.6170402 Z" id="Shape"></path>
            </g>
        </g>
    </g>
</svg>