<?xml version="1.0" encoding="UTF-8"?>
<svg width="35px" height="31px" viewBox="0 0 35 31" version="1.1" xmlns="http://www.w3.org/2000/svg" xmlns:xlink="http://www.w3.org/1999/xlink">
    <title>Group 18</title>
    <defs>
        <polygon id="path-1" points="2.35409648e-05 0.162432657 30.9704933 0.162432657 30.9704933 27.0720154 2.35409648e-05 27.0720154"></polygon>
    </defs>
    <g id="Page-1" stroke="none" stroke-width="1" fill="none" fill-rule="evenodd">
        <g id="Home-page-Copy" transform="translate(-365.000000, -53.000000)">
            <g id="Group-18" transform="translate(365.000000, 53.000000)">
                <g id="Group-3" transform="translate(2.000000, 2.072977)">
                    <mask id="mask-2" fill="white">
                        <use xlink:href="#path-1"></use>
                    </mask>
                    <g id="Clip-2"></g>
                    <path d="M1.17707178,6.7820578 L1.17707178,3.49809321 C1.17707178,2.30762662 2.14531166,1.33938673 3.33577826,1.33938673 L27.632408,1.33938673 C28.8240517,1.33938673 29.7934686,2.30762662 29.7934686,3.49809321 L29.7934686,6.7820578 L1.17707178,6.7820578 Z M29.7934686,23.734142 C29.7934686,24.9255502 28.8240517,25.8949671 27.632408,25.8949671 L3.33577826,25.8949671 C2.14531166,25.8949671 1.17707178,24.9255502 1.17707178,23.734142 L1.17707178,7.982647 L29.7934686,7.982647 L29.7934686,23.734142 Z M27.632408,0.162338493 L3.33577826,0.162338493 C1.49487481,0.162338493 2.35409648e-05,1.65483566 2.35409648e-05,3.49809321 L2.35409648e-05,6.7820578 L2.35409648e-05,7.982647 L2.35409648e-05,23.734142 C2.35409648e-05,25.5773995 1.49487481,27.0720154 3.33577826,27.0720154 L27.632408,27.0720154 C29.4756656,27.0720154 30.9705169,25.5773995 30.9705169,23.734142 L30.9705169,7.982647 L30.9705169,6.7820578 L30.9705169,3.49809321 C30.9705169,1.65483566 29.4756656,0.162338493 27.632408,0.162338493 L27.632408,0.162338493 Z" id="Fill-1" fill="#2A65A7" mask="url(#mask-2)"></path>
                </g>
                <path d="M25.3712109,13.9191201 L28.5174609,13.9191201 C28.858334,13.9191201 29.1356466,13.6394534 29.1356466,13.2985802 C29.1356466,12.9579425 28.858334,12.6803945 28.5174609,12.6803945 L25.3712109,12.6803945 C25.0279837,12.6803945 24.7506711,12.9579425 24.7506711,13.2985802 C24.7506711,13.6394534 25.0279837,13.9191201 25.3712109,13.9191201" id="Fill-4" fill="#2A65A7"></path>
                <path d="M25.3712109,17.8068162 L28.5174609,17.8068162 C28.858334,17.8068162 29.1356466,17.5295037 29.1356466,17.1888659 C29.1356466,16.8456386 28.858334,16.5683261 28.5174609,16.5683261 L25.3712109,16.5683261 C25.0279837,16.5683261 24.7506711,16.8456386 24.7506711,17.1888659 C24.7506711,17.5295037 25.0279837,17.8068162 25.3712109,17.8068162" id="Fill-6" fill="#2A65A7"></path>
                <path d="M5.42897693,13.8876222 L20.5785294,13.8876222 C20.9036302,13.8876222 21.1670536,13.6241989 21.1670536,13.2990981 C21.1670536,12.9739974 20.9036302,12.710574 20.5785294,12.710574 L5.42897693,12.710574 C5.10387621,12.710574 4.84045281,12.9739974 4.84045281,13.2990981 C4.84045281,13.6241989 5.10387621,13.8876222 5.42897693,13.8876222" id="Fill-8" fill="#2A65A7"></path>
                <path d="M5.42897693,17.6001501 L20.5785294,17.6001501 C20.9036302,17.6001501 21.1670536,17.3367267 21.1670536,17.011626 C21.1670536,16.6865253 20.9036302,16.4231019 20.5785294,16.4231019 L5.42897693,16.4231019 C5.10387621,16.4231019 4.84045281,16.6865253 4.84045281,17.011626 C4.84045281,17.3367267 5.10387621,17.6001501 5.42897693,17.6001501" id="Fill-10" fill="#2A65A7"></path>
                <path d="M5.42897693,21.3129134 L20.5785294,21.3129134 C20.9036302,21.3129134 21.1670536,21.04949 21.1670536,20.7243892 C21.1670536,20.3992885 20.9036302,20.1358651 20.5785294,20.1358651 L5.42897693,20.1358651 C5.10387621,20.1358651 4.84045281,20.3992885 4.84045281,20.7243892 C4.84045281,21.04949 5.10387621,21.3129134 5.42897693,21.3129134" id="Fill-12" fill="#2A65A7"></path>
                <path d="M5.42897693,25.0256531 L20.5785294,25.0256531 C20.9036302,25.0256531 21.1670536,24.7622297 21.1670536,24.437129 C21.1670536,24.1120283 20.9036302,23.8486049 20.5785294,23.8486049 L5.42897693,23.8486049 C5.10387621,23.8486049 4.84045281,24.1120283 4.84045281,24.437129 C4.84045281,24.7622297 5.10387621,25.0256531 5.42897693,25.0256531" id="Fill-14" fill="#2A65A7"></path>
                <path d="M24.6683248,23.1665289 L26.3945837,23.1665289 L26.3945837,24.8927879 C26.3945837,25.1955247 26.640116,25.4412924 26.9430882,25.4412924 C27.2460604,25.4412924 27.4915927,25.1955247 27.4915927,24.8927879 L27.4915927,23.1665289 L29.2178517,23.1665289 C29.5208239,23.1665289 29.7663561,22.9207613 29.7663561,22.6180245 C29.7663561,22.3150522 29.5208239,22.0692846 29.2178517,22.0692846 L27.4915927,22.0692846 L27.4915927,20.343261 C27.4915927,20.0402888 27.2460604,19.7947565 26.9430882,19.7947565 C26.640116,19.7947565 26.3945837,20.0402888 26.3945837,20.343261 L26.3945837,22.0692846 L24.6683248,22.0692846 C24.3653526,22.0692846 24.1198203,22.3150522 24.1198203,22.6180245 C24.1198203,22.9207613 24.3653526,23.1665289 24.6683248,23.1665289" id="Fill-16" fill="#2A65A7"></path>
            </g>
        </g>
    </g>
</svg>