<?xml version="1.0" encoding="UTF-8"?>
<svg width="25px" height="25px" viewBox="0 0 25 25" version="1.1" xmlns="http://www.w3.org/2000/svg" xmlns:xlink="http://www.w3.org/1999/xlink">
    <title>Group 3 Copy</title>
    <defs>
        <polygon id="path-1" points="0 7.04225352e-05 24.9531261 7.04225352e-05 24.9531261 24.9523592 0 24.9523592"></polygon>
    </defs>
    <g id="Page-1" stroke="none" stroke-width="1" fill="none" fill-rule="evenodd">
        <g id="Home-page-Copy-10" transform="translate(-39.000000, -142.000000)">
            <g id="Group-3-Copy" transform="translate(39.000000, 142.000000)">
                <mask id="mask-2" fill="white">
                    <use xlink:href="#path-1"></use>
                </mask>
                <g id="Clip-2"></g>
                <path d="M24.0305458,10.6409155 C23.9918134,10.7358099 23.8668134,10.9578169 23.5569542,10.9578169 L1.39674296,10.9578169 C1.0868838,10.9578169 0.961883803,10.7358099 0.921390845,10.6409155 C0.882658451,10.5458451 0.813996479,10.3009507 1.0340669,10.0808803 L8.67315141,2.45605634 C9.69251761,1.44003521 11.0446303,0.880352113 12.4830106,0.880352113 C13.924912,0.880352113 15.2787852,1.44003521 16.2963908,2.45940141 L23.9196303,10.0826408 C24.1379401,10.3009507 24.0710387,10.5458451 24.0305458,10.6409155 L24.0305458,10.6409155 Z M20.7735035,21.0773592 C20.7735035,22.7287676 19.4301937,24.0720775 17.7787852,24.0720775 L15.8016725,24.0720775 L15.8016725,18.2252465 C15.8016725,16.5335211 14.4284331,15.1602817 12.7365317,15.1602817 C11.0446303,15.1602817 9.67315141,16.5335211 9.67315141,18.2252465 L9.67315141,24.0720775 L7.17491197,24.0720775 C5.52350352,24.0720775 4.18019366,22.7287676 4.18019366,21.0773592 L4.18019366,11.9294718 L20.7735035,11.9294718 L20.7735035,21.0773592 Z M3.96892606,2.10024648 C3.96892606,1.42788732 4.51646127,0.880352113 5.19075704,0.880352113 C5.86329225,0.880352113 6.41082746,1.42788732 6.41082746,2.10024648 L6.41082746,3.22172535 L3.96892606,5.68492958 L3.96892606,2.10024648 Z M24.5428697,9.45940141 L16.9196303,1.83616197 C15.6942782,0.612570423 14.0886444,7.04225354e-05 12.4830106,7.04225354e-05 C10.8791373,7.04225354e-05 9.27702465,0.610809859 8.05167254,1.8328169 L7.29110915,2.59144366 L7.29110915,2.10024648 C7.29110915,0.940035211 6.35096831,7.04225354e-05 5.19075704,7.04225354e-05 C4.03054577,7.04225354e-05 3.08864437,0.940035211 3.08864437,2.10024648 L3.08864437,6.7868662 L0.412588028,9.45940141 C-0.467693662,10.336338 0.153785211,11.8380986 1.39674296,11.8380986 L3.29991197,11.8380986 L3.29991197,21.0773592 C3.29991197,23.2182042 5.0340669,24.9523592 7.17491197,24.9523592 L10.5534331,24.9523592 L10.5534331,18.2252465 C10.5534331,17.0210211 11.5323063,16.0405634 12.7365317,16.0405634 C13.940757,16.0405634 14.9213908,17.0210211 14.9213908,18.2252465 L14.9213908,24.9523592 L17.7787852,24.9523592 C19.9196303,24.9523592 21.6537852,23.2182042 21.6537852,21.0773592 L21.6537852,11.8380986 L23.5569542,11.8380986 C24.7981514,11.8380986 25.4196303,10.3379225 24.5428697,9.45940141 L24.5428697,9.45940141 Z" id="Fill-1" fill="#286BB3" mask="url(#mask-2)"></path>
            </g>
        </g>
    </g>
</svg>