<?xml version="1.0" encoding="UTF-8"?>
<svg width="26px" height="26px" viewBox="0 0 26 26" version="1.1" xmlns="http://www.w3.org/2000/svg" xmlns:xlink="http://www.w3.org/1999/xlink">
    <title>Group 7</title>
    <defs>
        <polygon id="path-1" points="4.58150213e-05 0.206543103 24.9792759 0.206543103 24.9792759 25.7758621 4.58150213e-05 25.7758621"></polygon>
    </defs>
    <g id="Page-1" stroke="none" stroke-width="1" fill="none" fill-rule="evenodd">
        <g id="Home-page-Copy-10" transform="translate(-238.000000, -141.000000)">
            <g id="Group-8" transform="translate(238.000000, 141.000000)">
                <g id="Group-3" transform="translate(0.000000, 0.164966)">
                    <mask id="mask-2" fill="white">
                        <use xlink:href="#path-1"></use>
                    </mask>
                    <g id="Clip-2"></g>
                    <path d="M12.7834828,24.6552845 C12.5936379,24.6552845 12.4031207,24.6505776 12.2112586,24.6413879 C6.20413793,24.3547155 1.34617241,19.4355603 1.12853448,13.4250776 C0.888482759,6.78768103 6.19943103,1.32768103 12.7834828,1.32723276 C12.8383966,1.32723276 12.8928621,1.32768103 12.9482241,1.32835345 C12.9486724,1.32925 12.9486724,1.32902586 12.9491207,1.32992241 C11.714569,3.16292241 11.0672586,5.42223276 11.2779483,7.84023276 C11.7100862,12.7959224 15.8073276,16.732681 20.7753448,16.982819 C20.9499483,16.9915603 21.1229828,16.995819 21.2953448,16.995819 C22.1824828,16.995819 23.0402586,16.8808362 23.8581379,16.6670086 C22.3187586,21.3066638 17.9438103,24.6552845 12.7834828,24.6552845 M23.8821207,15.5465431 C23.8740517,15.5465431 23.8659828,15.546319 23.8579138,15.546319 C23.8372931,15.546319 23.8166724,15.5469914 23.7958276,15.5481121 C23.7115517,15.552819 23.6299655,15.5667155 23.5515172,15.5889052 C22.8170172,15.77875 22.0578621,15.8751293 21.2953448,15.8751293 C21.1415862,15.8751293 20.9858103,15.871319 20.8318276,15.8634741 C16.406,15.640681 12.7787759,12.1497328 12.3946034,7.7429569 C12.2135,5.66766379 12.7267759,3.66656034 13.8788448,1.95593966 C14.1088103,1.61390517 14.1330172,1.17325 13.9411552,0.808353448 C13.9389138,0.804543103 13.9366724,0.799836207 13.934431,0.796025862 C13.7412241,0.43875 13.3696034,0.213491379 12.9639138,0.207887931 C12.9031724,0.206991379 12.8437759,0.206543103 12.7834828,0.206543103 L12.7832586,0.206543103 C9.28222414,0.206543103 6.01451724,1.59575 3.58239655,4.11752586 C1.15117241,6.63862931 -0.118344828,9.95878448 0.00874137931,13.4656466 C0.246775862,20.0465603 5.58327586,25.4471638 12.1579138,25.7609569 C12.3659138,25.770819 12.5761552,25.7759741 12.7834828,25.7759741 C18.2914483,25.7759741 23.1586034,22.2756121 24.9082241,17.0610431 C24.9541724,16.9384397 24.9792759,16.80575 24.9792759,16.6670086 C24.9792759,16.0560086 24.490431,15.5588707 23.8821207,15.5465431" id="Fill-1" fill="#286BB3" mask="url(#mask-2)"></path>
                </g>
                <path d="M16.0485897,11.0182621 C16.135331,11.2276069 16.3397448,11.3641069 16.5663483,11.3641069 L19.8735034,11.3641069 C20.1830379,11.3641069 20.4338483,11.1132966 20.4338483,10.8037621 C20.4338483,10.4942276 20.1830379,10.2434172 19.8735034,10.2434172 L17.9190207,10.2434172 L20.2697793,7.89265862 C20.4300379,7.7324 20.4780034,7.49145172 20.3912621,7.28188276 C20.3045207,7.07253793 20.1001069,6.93603793 19.8735034,6.93603793 L16.6286586,6.93603793 C16.3191241,6.93603793 16.0683138,7.18684828 16.0683138,7.49638276 C16.0683138,7.80591724 16.3191241,8.05672759 16.6286586,8.05672759 L18.520831,8.05672759 L16.1700724,10.4074862 C16.0098138,10.5677448 15.9618483,10.8086931 16.0485897,11.0182621" id="Fill-4" fill="#286BB3"></path>
                <path d="M25.3192483,4.63163103 L22.0403345,4.63163103 L25.7155241,0.956665517 C25.8755586,0.796406897 25.9235241,0.555234483 25.8370069,0.345889655 C25.7502655,0.136544828 25.5458517,4.48275864e-05 25.3192483,4.48275864e-05 L20.7750759,4.48275864e-05 C20.4655414,4.48275864e-05 20.214731,0.250855172 20.214731,0.560389655 C20.214731,0.869924138 20.4655414,1.12073448 20.7750759,1.12073448 L23.9665759,1.12073448 L20.2913862,4.7957 C20.1313517,4.95595862 20.0833862,5.1969069 20.1699034,5.40647586 C20.2566448,5.61582069 20.4610586,5.75232069 20.6876621,5.75232069 L25.3192483,5.75232069 C25.6287828,5.75232069 25.8795931,5.50151034 25.8795931,5.19197586 C25.8795931,4.88244138 25.6287828,4.63163103 25.3192483,4.63163103" id="Fill-6" fill="#286BB3"></path>
            </g>
        </g>
    </g>
</svg>