<?xml version="1.0" encoding="UTF-8"?>
<svg width="35px" height="35px" viewBox="0 0 35 35" version="1.1" xmlns="http://www.w3.org/2000/svg" xmlns:xlink="http://www.w3.org/1999/xlink">
    <title>Group 7</title>
    <g id="Page-1" stroke="none" stroke-width="1" fill="none" fill-rule="evenodd">
        <g id="Home-page-Copy-10" transform="translate(-51.000000, -810.000000)" fill="#286BB3">
            <g id="TabBar/first" transform="translate(-9.000000, 805.000000)">
                <g id="Item-1" transform="translate(53.778667, 5.981928)">
                    <g id="Group-7" transform="translate(7.000000, 0.000000)">
                        <path d="M26.0805027,7.84124955 C25.9420342,7.8307991 25.8009532,7.82531261 25.6598721,7.82531261 L24.5050973,7.82531261 C24.3010523,5.99151982 22.746809,4.56764595 20.8683405,4.56764595 L12.7143766,4.56764595 C10.8306829,4.56764595 9.27617838,5.99413243 9.07500721,7.82531261 L7.92284505,7.82531261 C7.78176396,7.82531261 7.64068288,7.8307991 7.50221441,7.84124955 C7.7059982,5.13458288 9.96564685,3.00007838 12.7143766,3.00007838 L20.8683405,3.00007838 C23.6194216,3.00007838 25.8819441,5.13954685 26.0805027,7.84124955" id="Fill-1"></path>
                        <path d="M16.7914369,18.889727 C15.9433829,18.889727 15.2533919,19.579718 15.2533919,20.4275108 C15.2533919,21.2755649 15.9433829,21.9652946 16.7914369,21.9652946 C17.6392297,21.9652946 18.3292207,21.2755649 18.3292207,20.4275108 C18.3292207,19.579718 17.6392297,18.889727 16.7914369,18.889727" id="Fill-3"></path>
                        <path d="M31.2534234,12.9682973 L19.9434234,20.314964 C19.8415315,20.3802793 19.7396396,20.442982 19.6351351,20.5004595 C19.6142342,22.054964 18.3471171,23.309018 16.7926126,23.309018 C15.2354955,23.309018 13.9683784,22.054964 13.9474775,20.5033333 C13.842973,20.442982 13.7384685,20.3802793 13.6365766,20.314964 L2.3318018,12.9711712 C2.11495495,13.5825225 2,14.2406396 2,14.9251441 L2,26.0052342 C2,29.2762252 4.6518018,31.9306396 7.92279279,31.9306396 L25.6598198,31.9306396 C28.9308108,31.9306396 31.5852252,29.2762252 31.5852252,26.0052342 L31.5852252,14.9251441 C31.5852252,14.238027 31.4676577,13.5799099 31.2534234,12.9682973 M28.6042342,9.78378378 C27.8515405,9.34982883 26.9922523,9.07811712 26.0804505,9.01541441 C25.941982,9.00496396 25.8009009,9 25.6598198,9 L7.92279279,9 C7.78171171,9 7.64063063,9.00496396 7.50216216,9.01541441 C6.59036036,9.07811712 5.73081081,9.34982883 4.97837838,9.78378378 C4.2073964,10.2250541 3.54666667,10.8366667 3.04504505,11.5653243 L14.3942342,18.9357658 C14.9010811,18.1464955 15.7867568,17.6216216 16.7926126,17.6216216 C17.7984685,17.6216216 18.6841441,18.1464955 19.1883784,18.9357658 L30.5375676,11.5653243 C30.0385586,10.8366667 29.374955,10.2250541 28.6042342,9.78378378" id="Fill-5"></path>
                    </g>
                </g>
            </g>
        </g>
    </g>
</svg>