<?xml version="1.0" encoding="UTF-8"?>
<svg width="281px" height="179px" viewBox="0 0 281 179" version="1.1" xmlns="http://www.w3.org/2000/svg" xmlns:xlink="http://www.w3.org/1999/xlink">
    <title>Group 12</title>
    <g id="Page-1" stroke="none" stroke-width="1" fill="none" fill-rule="evenodd">
        <g id="Artboard-Copy-4" transform="translate(-88.000000, -348.000000)">
            <g id="Group-12" transform="translate(87.000000, 348.000000)">
                <path d="M175.7461,63.9164 C178.7681,59.1574 181.0191,53.8914 182.2251,48.3474 C187.0751,26.0504 173.1371,8.0914 151.3771,9.5774 C132.9061,10.8394 114.8161,26.4334 109.5191,45.6524 C106.9121,55.1104 107.6721,63.8984 110.9861,70.9174 C114.7271,78.8314 115.4591,88.4284 113.3331,98.2034 L112.4161,105.4574 C112.3611,105.6774 112.2891,105.8944 112.2421,106.1134 C109.6111,118.2054 116.7551,128.0394 128.1971,128.078529 C139.6401,128.1194 151.0481,118.3494 153.6791,106.2604 C153.7251,106.0384 153.7481,105.8234 153.7891,105.6034 L155.1191,101.2984" id="Stroke-1" stroke="#231916" stroke-width="7.789" stroke-linecap="round" stroke-linejoin="round"></path>
                <line x1="119.5986" y1="87.9028" x2="199.1886" y2="87.9028" id="Stroke-3" stroke="#2965A7" stroke-width="7.789" stroke-linecap="round" stroke-linejoin="round"></line>
                <line x1="112.416" y1="105.4574" x2="135.49" y2="105.4574" id="Stroke-5" stroke="#231916" stroke-width="7.789" stroke-linecap="round" stroke-linejoin="round"></line>
                <line x1="199.8984" y1="87.9028" x2="207.7324" y2="80.0688" id="Stroke-7" stroke="#2965A7" stroke-width="7.789" stroke-linecap="round" stroke-linejoin="round"></line>
                <polygon id="Stroke-9" stroke="#2965A7" stroke-width="7.789" stroke-linecap="round" stroke-linejoin="round" points="213.2773 79.8783 200.9913 78.8623 230.3843 3.8943 242.6693 4.9093"></polygon>
                <text id="C" font-family="HelveticaNeue-BoldItalic, Helvetica Neue" font-size="48.6841" font-style="italic" font-weight="bold" fill="#231916">
                    <tspan x="0" y="177.527487">C</tspan>
                </text>
                <text id="i" font-family="HelveticaNeue-BoldItalic, Helvetica Neue" font-size="48.6841" font-style="italic" font-weight="bold" fill="#231916">
                    <tspan x="38.94728" y="177.527487">i</tspan>
                </text>
                <text id="r" font-family="HelveticaNeue-BoldItalic, Helvetica Neue" font-size="48.6841" font-style="italic" font-weight="bold" fill="#231916">
                    <tspan x="54.4775079" y="177.527487">r</tspan>
                </text>
                <text id="c" font-family="HelveticaNeue-BoldItalic, Helvetica Neue" font-size="48.6841" font-style="italic" font-weight="bold" fill="#231916">
                    <tspan x="75.460355" y="177.527487">c</tspan>
                </text>
                <text id="a" font-family="HelveticaNeue-BoldItalic, Helvetica Neue" font-size="48.6841" font-style="italic" font-weight="bold" fill="#231916">
                    <tspan x="105.401077" y="177.527487">a</tspan>
                </text>
                <text id="d" font-family="HelveticaNeue-BoldItalic, Helvetica Neue" font-size="48.6841" font-style="italic" font-weight="bold" fill="#231916">
                    <tspan x="136.266796" y="177.527487">d</tspan>
                </text>
                <text id="T" font-family="HelveticaNeue-BoldItalic, Helvetica Neue" font-size="48.6841" font-style="italic" font-weight="bold" fill="#2965A7">
                    <tspan x="169.031195" y="177.527487">T</tspan>
                </text>
                <text id="odo" font-family="HelveticaNeue-BoldItalic, Helvetica Neue" font-size="48.6841" font-style="italic" font-weight="bold" letter-spacing="0.06" fill="#2965A7">
                    <tspan x="196.294291" y="177.527487">od</tspan>
                    <tspan x="255.029948" y="177.527487">o</tspan>
                </text>
            </g>
        </g>
    </g>
</svg>