<?xml version="1.0" encoding="UTF-8"?>
<svg width="27px" height="27px" viewBox="0 0 27 27" version="1.1" xmlns="http://www.w3.org/2000/svg" xmlns:xlink="http://www.w3.org/1999/xlink">
    <title>Group 7</title>
    <defs>
        <polygon id="path-1" points="0 7.6056338e-05 26.9493762 7.6056338e-05 26.9493762 26.9485479 0 26.9485479"></polygon>
    </defs>
    <g id="Page-1" stroke="none" stroke-width="1" fill="none" fill-rule="evenodd">
        <g id="Home-page-Copy-10" transform="translate(-40.000000, -143.000000)">
            <g id="Group-3-Copy" transform="translate(40.000000, 143.000000)">
                <mask id="mask-2" fill="white">
                    <use xlink:href="#path-1"></use>
                </mask>
                <g id="Clip-2"></g>
                <path d="M25.9529894,11.4921887 C25.9111585,11.5946746 25.7761585,11.8344423 25.4415106,11.8344423 L1.50848239,11.8344423 C1.17383451,11.8344423 1.03883451,11.5946746 0.995102113,11.4921887 C0.953271127,11.3895127 0.879116197,11.1250268 1.11679225,10.8873507 L9.36700352,2.65254085 C10.467919,1.55523803 11.9282007,0.950780282 13.4816514,0.950780282 C15.0389049,0.950780282 16.501088,1.55523803 17.6001021,2.65615352 L25.8332007,10.8892521 C26.0689754,11.1250268 25.9967218,11.3895127 25.9529894,11.4921887 L25.9529894,11.4921887 Z M22.4353838,22.7635479 C22.4353838,24.547069 20.9846092,25.9978437 19.201088,25.9978437 L17.0658063,25.9978437 L17.0658063,19.6832662 C17.0658063,17.8562028 15.5827077,16.3731042 13.7554542,16.3731042 C11.9282007,16.3731042 10.4470035,17.8562028 10.4470035,19.6832662 L10.4470035,25.9978437 L7.74890493,25.9978437 C5.9653838,25.9978437 4.51460915,24.547069 4.51460915,22.7635479 L4.51460915,12.8838296 L22.4353838,12.8838296 L22.4353838,22.7635479 Z M4.28644014,2.2682662 C4.28644014,1.54211831 4.87777817,0.950780282 5.60601761,0.950780282 C6.33235563,0.950780282 6.92369366,1.54211831 6.92369366,2.2682662 L6.92369366,3.47946338 L4.28644014,6.13972394 L4.28644014,2.2682662 Z M26.5062993,10.2161535 L18.2732007,1.98305493 C16.9498204,0.661576056 15.2157359,7.6056338e-05 13.4816514,7.6056338e-05 C11.7494683,7.6056338e-05 10.0191866,0.659674648 8.69580634,1.97944225 L7.87439789,2.79875915 L7.87439789,2.2682662 C7.87439789,1.01523803 6.85904577,7.6056338e-05 5.60601761,7.6056338e-05 C4.35298944,7.6056338e-05 3.33573592,1.01523803 3.33573592,2.2682662 L3.33573592,7.32981549 L0.44559507,10.2161535 C-0.505109155,11.1632451 0.166088028,12.7851465 1.50848239,12.7851465 L3.56390493,12.7851465 L3.56390493,22.7635479 C3.56390493,25.0756606 5.43679225,26.9485479 7.74890493,26.9485479 L11.3977077,26.9485479 L11.3977077,19.6832662 C11.3977077,18.3827028 12.4548908,17.3238085 13.7554542,17.3238085 C15.0560176,17.3238085 16.1151021,18.3827028 16.1151021,19.6832662 L16.1151021,26.9485479 L19.201088,26.9485479 C21.5132007,26.9485479 23.386088,25.0756606 23.386088,22.7635479 L23.386088,12.7851465 L25.4415106,12.7851465 C26.7820035,12.7851465 27.4532007,11.1649563 26.5062993,10.2161535 L26.5062993,10.2161535 Z" id="Fill-1" fill="#286BB3" mask="url(#mask-2)"></path>
            </g>
        </g>
    </g>
</svg>