<?xml version="1.0" encoding="UTF-8"?>
<svg width="33px" height="29px" viewBox="0 0 33 29" version="1.1" xmlns="http://www.w3.org/2000/svg" xmlns:xlink="http://www.w3.org/1999/xlink">
    <title>Group 21</title>
    <defs>
        <polygon id="path-1" points="0 0.161 30.6973333 0.161 30.6973333 7.91224 0 7.91224"></polygon>
        <polygon id="path-3" points="0 0.18893 30.6973333 0.18893 30.6973333 20.29993 0 20.29993"></polygon>
    </defs>
    <g id="Page-1" stroke="none" stroke-width="1" fill="none" fill-rule="evenodd">
        <g id="Home-page-Copy-10" transform="translate(-366.000000, -57.000000)">
            <g id="Group-21" transform="translate(366.000000, 57.000000)">
                <g id="Group-3" transform="translate(1.000000, 1.072333)">
                    <mask id="mask-2" fill="white">
                        <use xlink:href="#path-1"></use>
                    </mask>
                    <g id="Clip-2"></g>
                    <path d="M27.38862,0.160906667 L3.30628667,0.160906667 C1.48185333,0.160906667 -4.66666667e-05,1.64024 -4.66666667e-05,3.46724 L-4.66666667e-05,7.91224 L30.69752,7.91224 L30.69752,3.46724 C30.69752,1.64024 29.21562,0.160906667 27.38862,0.160906667 M27.38862,1.32757333 C28.5697533,1.32757333 29.5308533,2.28727333 29.5308533,3.46724 L29.5308533,6.74557333 L1.16662,6.74557333 L1.16662,3.46724 C1.16662,2.28727333 2.12655333,1.32757333 3.30628667,1.32757333 L27.38862,1.32757333" id="Fill-1" fill="#CACACA" mask="url(#mask-2)"></path>
                </g>
                <g id="Group-6" transform="translate(1.000000, 7.605667)">
                    <mask id="mask-4" fill="white">
                        <use xlink:href="#path-3"></use>
                    </mask>
                    <g id="Clip-5"></g>
                    <path d="M30.6974267,0.18893 L-0.00014,0.18893 L-0.00014,16.9914967 C-0.00014,18.8184967 1.48176,20.29993 3.30619333,20.29993 L27.3885267,20.29993 C29.2155267,20.29993 30.6974267,18.8184967 30.6974267,16.9914967 L30.6974267,0.18893 Z M29.53076,1.35559667 L29.53076,16.9914967 C29.53076,18.1723967 28.5698933,19.1332633 27.3885267,19.1332633 L3.30619333,19.1332633 C2.12669333,19.1332633 1.16652667,18.1723967 1.16652667,16.9914967 L1.16652667,1.35559667 L29.53076,1.35559667 L29.53076,1.35559667 Z" id="Fill-4" fill="#CACACA" mask="url(#mask-4)"></path>
                </g>
                <path d="M27.8961933,12.1989967 C27.8961933,12.53663 27.6213267,12.8140633 27.2836933,12.8140633 L24.1651933,12.8140633 C23.8249933,12.8140633 23.5501267,12.53663 23.5501267,12.1989967 C23.5501267,11.8613633 23.8249933,11.5862633 24.1651933,11.5862633 L27.2836933,11.5862633 C27.6213267,11.5862633 27.8961933,11.8613633 27.8961933,12.1989967" id="Fill-7" fill="#CACACA"></path>
                <line x1="4.39880333" y1="12.1992067" x2="19.4147367" y2="12.1992067" id="Stroke-9" stroke="#CACACA" stroke-width="1.16666667" stroke-linecap="round" stroke-linejoin="round"></line>
                <line x1="4.39880333" y1="15.8792233" x2="16.3487367" y2="15.8792233" id="Stroke-11" stroke="#CACACA" stroke-width="1.16666667" stroke-linecap="round" stroke-linejoin="round"></line>
                <line x1="4.39880333" y1="19.55924" x2="16.3487367" y2="19.55924" id="Stroke-13" stroke="#CACACA" stroke-width="1.16666667" stroke-linecap="round" stroke-linejoin="round"></line>
                <line x1="4.39880333" y1="23.2392567" x2="16.3487367" y2="23.2392567" id="Stroke-15" stroke="#CACACA" stroke-width="1.16666667" stroke-linecap="round" stroke-linejoin="round"></line>
                <path d="M23.5925233,23.73691 L23.5925233,23.73691 C23.1440567,23.73691 22.7807567,23.3733767 22.7807567,22.9251433 L22.7807567,16.1934767 C22.7807567,15.74501 23.1440567,15.38171 23.5925233,15.38171 C24.0407567,15.38171 24.40429,15.74501 24.40429,16.1934767 L24.40429,22.9251433 C24.40429,23.3733767 24.0407567,23.73691 23.5925233,23.73691" id="Fill-17" fill="#CACACA"></path>
                <path d="M19.4148533,19.55924 L19.4148533,19.55924 C19.4148533,19.1110067 19.7783867,18.7474733 20.22662,18.7474733 L26.9582867,18.7474733 C27.40652,18.7474733 27.7700533,19.1110067 27.7700533,19.55924 C27.7700533,20.0074733 27.40652,20.3710067 26.9582867,20.3710067 L20.22662,20.3710067 C19.7783867,20.3710067 19.4148533,20.0074733 19.4148533,19.55924" id="Fill-19" fill="#CACACA"></path>
            </g>
        </g>
    </g>
</svg>