<?xml version="1.0" encoding="UTF-8"?>
<svg width="34px" height="34px" viewBox="0 0 34 34" version="1.1" xmlns="http://www.w3.org/2000/svg" xmlns:xlink="http://www.w3.org/1999/xlink">
    <title>Group 7</title>
    <defs>
        <polygon id="path-1" points="0 0.0594405594 24.4436224 0.0594405594 24.4436224 33.762214 0 33.762214"></polygon>
    </defs>
    <g id="Page-1" stroke="none" stroke-width="1" fill="none" fill-rule="evenodd">
        <g id="Home-page-Copy-10" transform="translate(-190.000000, -809.000000)">
            <g id="TabBar/first" transform="translate(-9.000000, 805.000000)">
                <g id="Group-6" transform="translate(199.000000, 4.000000)">
                    <g id="Group-3" transform="translate(5.000000, 0.178322)">
                        <mask id="mask-2" fill="white">
                            <use xlink:href="#path-1"></use>
                        </mask>
                        <g id="Clip-2"></g>
                        <path d="M23.2544783,12.3557664 C23.2314154,15.787151 21.6502965,18.9555706 18.9160308,21.0485916 L18.6552056,21.2483119 L18.5339469,21.5535986 L17.6642126,23.7417245 L6.62015664,23.6682559 L5.77705175,21.459207 L5.66007273,21.1522559 L5.40186294,20.9489692 C2.70183497,18.8233748 1.16636643,15.6375986 1.18895385,12.2088294 C1.22913566,6.16515105 6.17839441,1.24822797 12.2213594,1.24822797 L12.2964923,1.24846573 C12.4676811,1.24965455 12.6089119,1.25322098 12.7439608,1.26011608 C12.8426322,1.26510909 12.941779,1.26962657 13.0404503,1.27866154 L13.0908559,1.28341678 L13.1203385,1.28365455 L13.2304224,1.29411608 L13.2420727,1.2953049 L13.2534853,1.29601818 C13.3084084,1.3002979 13.3633315,1.30695524 13.4184923,1.31313706 L13.426814,1.31432587 L13.4351357,1.31503916 C13.5214434,1.3235986 13.6079888,1.3342979 13.6921566,1.3468993 L13.7168839,1.35046573 L13.741849,1.35331888 C13.8210238,1.36164056 13.9001986,1.37447972 13.9774713,1.38660559 C14.0136112,1.39231189 14.049751,1.39873147 14.0861287,1.40467552 C14.1251217,1.41157063 14.1641147,1.41822797 14.2023944,1.42417203 L14.2266462,1.42892727 C14.3212755,1.44747273 14.4166182,1.46578042 14.5174294,1.48789231 C14.6037371,1.5062 14.6902825,1.52450769 14.7732615,1.54424196 C15.0512056,1.61105315 15.3241566,1.6868993 15.5842685,1.76964056 L15.6489399,1.7908014 C15.7017231,1.80815804 15.7540308,1.82503916 15.8063385,1.8442979 L15.8187021,1.84881538 L15.8310657,1.8530951 C16.0826182,1.9394028 16.3351217,2.03736084 16.5883385,2.14649371 C16.6415972,2.16908112 16.6924783,2.19166853 16.7371776,2.2114028 C17.9179049,2.74256364 18.9852196,3.46892727 19.9165343,4.37599021 C19.9483944,4.40666154 19.9823944,4.43875944 20.0142545,4.47275944 L20.0273315,4.48654965 L20.0404084,4.49962657 C20.8052895,5.26593427 21.4503385,6.13614406 21.9577231,7.08719301 C21.9976671,7.16208811 22.037849,7.23912308 22.0756531,7.31615804 L22.0792196,7.32352867 L22.082786,7.3308993 C22.1120308,7.3882 22.1415133,7.44526294 22.1688559,7.5047035 L22.1755133,7.51920699 L22.1826462,7.53371049 C22.2092755,7.58815804 22.2361427,7.64450769 22.2608699,7.70061958 L22.2710937,7.72368252 L22.2822685,7.74626993 C22.2913035,7.76505315 22.3003385,7.78288531 22.3079469,7.80166853 L22.3174573,7.82592028 L22.3279189,7.84945874 C22.3576392,7.91650769 22.3873594,7.98545874 22.416842,8.0575007 C22.5000587,8.25674545 22.5649678,8.42484336 22.6241706,8.59626993 C22.6496112,8.6675986 22.6729119,8.73654965 22.6995413,8.81857762 C22.7214154,8.88372448 22.7435273,8.95124895 22.7634993,9.01853566 L22.7680168,9.03446573 L22.7732476,9.05015804 C22.790842,9.10365455 22.8060587,9.15738881 22.8243664,9.22110909 C22.8474294,9.29790629 22.8678769,9.37660559 22.8885622,9.4553049 L22.8909399,9.46362657 L22.8930797,9.47218601 C22.9080587,9.52544476 22.9208979,9.57894126 22.9334993,9.6341021 L22.9387301,9.65573846 L22.9444364,9.6768993 C22.9603664,9.73443776 22.9732056,9.78793427 22.9841427,9.84119301 L22.9862825,9.85094126 L22.9877091,9.85807413 C23.0069678,9.94675944 23.0264643,10.035207 23.0435832,10.1238923 L23.0450098,10.1317385 L23.0466741,10.1395846 C23.057849,10.1935566 23.0692615,10.249193 23.0785343,10.3034028 C23.0832895,10.3333608 23.088758,10.3637944 23.0939888,10.3944657 C23.0985063,10.4196685 23.1030238,10.4453469 23.1073035,10.4719762 L23.1413035,10.6940462 L23.1441566,10.7125916 C23.1505762,10.7568154 23.156758,10.8000881 23.1612755,10.8431231 L23.1634154,10.8621441 L23.1662685,10.8809273 C23.1800587,10.9788853 23.1919469,11.0884937 23.2031217,11.216172 L23.204786,11.2370951 L23.2074014,11.2580182 C23.2135832,11.3091371 23.2183385,11.3616825 23.2209538,11.4147035 C23.2228559,11.448228 23.2257091,11.4805636 23.2288,11.5128993 L23.2299888,11.5302559 L23.2304643,11.5378643 L23.2309399,11.545235 C23.2371217,11.6334448 23.2406881,11.7216545 23.2447301,11.812242 L23.2456811,11.8338783 L23.2454434,11.8410112 L23.2454434,11.875249 L23.2471077,11.9097245 C23.2532895,12.0326476 23.2556671,12.1703119 23.2544783,12.3557664 L23.2544783,12.3557664 Z M17.245751,28.2059483 C17.2295832,30.6128154 15.2590098,32.5719762 12.8616531,32.5734028 L11.3490098,32.5634168 C10.1732755,32.5555706 9.07172308,32.0907455 8.24645035,31.2547734 C7.42117762,30.4190392 6.97133147,29.3120182 6.97907669,28.1374727 L7.00081399,24.8922559 L17.2671497,24.9604937 L17.245751,28.2059483 Z M24.4342545,11.8486196 C24.4344923,11.8191371 24.4347301,11.7896545 24.4323524,11.7623119 C24.4283105,11.6615007 24.4240308,11.5628294 24.4173734,11.464158 C24.4149958,11.4246895 24.4102406,11.3878364 24.4081007,11.3483678 C24.4035832,11.2694308 24.3969259,11.1907315 24.3876531,11.114172 C24.3760028,10.9810252 24.3619748,10.8478783 24.3431916,10.7147315 C24.3362965,10.6505357 24.3270238,10.5865776 24.3175133,10.5200042 L24.2820867,10.2905636 C24.2725762,10.2289832 24.2606881,10.167165 24.2511776,10.1079622 C24.2395273,10.0390112 24.2250238,9.96744476 24.210758,9.89825594 C24.1917371,9.79958462 24.1703385,9.70091329 24.1487021,9.60224196 C24.131821,9.52092727 24.1128,9.44175245 24.0911636,9.36281538 C24.0742825,9.29124895 24.0576392,9.22206014 24.0383804,9.15310909 C24.0141287,9.06180839 23.9903524,8.97050769 23.9637231,8.88158462 C23.9444643,8.81477343 23.9252056,8.7482 23.9033315,8.68162657 C23.8793175,8.60007413 23.8529259,8.51852168 23.8262965,8.43958462 C23.7996671,8.35826993 23.7732755,8.2790951 23.7442685,8.19754266 C23.6741287,7.99520699 23.5963804,7.79738881 23.5141147,7.59980839 C23.4824923,7.52324895 23.4484923,7.44407413 23.4144923,7.36751469 C23.3952336,7.3182979 23.3733594,7.27122098 23.3488699,7.22176643 C23.3174853,7.14996224 23.2834853,7.0783958 23.2494853,7.00920699 C23.2154853,6.93502517 23.1791077,6.86322098 23.1422545,6.79165455 C23.0987441,6.70273147 23.0523804,6.61357063 23.0062545,6.52702517 C22.4415692,5.46874545 21.723765,4.50319301 20.881849,3.65985035 C20.8352476,3.61015804 20.7862685,3.56308112 20.7399049,3.51838182 C19.7237091,2.52857762 18.5365622,1.71733287 17.2250657,1.12720699 C17.1684783,1.10224196 17.1118909,1.07727692 17.0529259,1.05207413 C16.7804503,0.93461958 16.5027441,0.826675524 16.2174294,0.728717483 C16.1287441,0.696144056 16.0402965,0.668563636 15.9494713,0.638367832 C15.656786,0.545165035 15.3567301,0.461948252 15.0519189,0.38847972 C14.9558629,0.365654545 14.859807,0.345206993 14.7639888,0.324759441 C14.6484364,0.299318881 14.5278909,0.276493706 14.4097231,0.253668531 C14.3284084,0.240591608 14.2447161,0.225374825 14.1636392,0.212535664 C14.0652056,0.197081119 13.966772,0.181626573 13.8681007,0.171165035 C13.7646741,0.155472727 13.6588699,0.142633566 13.5530657,0.131934266 C13.4841147,0.124325874 13.4151636,0.116241958 13.3462126,0.111011189 C13.2920028,0.10578042 13.237793,0.100311888 13.1812056,0.0950811189 L13.1491077,0.0948433566 C13.0335552,0.0841440559 12.9175273,0.0784377622 12.8019748,0.0727314685 C12.6369678,0.0644097902 12.4717231,0.0608433566 12.3043385,0.0594167832 C12.276758,0.0594167832 12.2487021,0.0594167832 12.2213594,0.0594167832 C5.50814266,0.0594167832 0.0450797203,5.47801818 0.000142657343,12.2009832 C-0.0257734266,16.1257245 1.80356923,19.6293888 4.66646434,21.8831371 L5.8120028,24.884172 L5.79036643,28.1296266 C5.76968112,31.2143538 8.25382098,33.7315427 11.3409259,33.752228 L12.853807,33.762214 C15.9185622,33.7605497 18.4138769,31.2835427 18.4343245,28.2137944 L18.4557231,24.9683399 L19.6385902,21.9925077 C22.5361986,19.7746615 24.4171357,16.2933469 24.4432895,12.3636126 C24.4444783,12.191235 24.4430517,12.0188573 24.4342545,11.8486196 L24.4342545,11.8486196 Z" id="Fill-1" fill="#D2D2D2" mask="url(#mask-2)"></path>
                    </g>
                    <path d="M22.8556112,18.4848727 C22.7488559,18.5902014 22.6100028,18.6439357 22.4713874,18.6439357 L22.467821,18.6439357 C22.3280168,18.6429846 22.1884503,18.587586 22.0821706,18.479642 C21.8715133,18.2663692 21.8738909,17.9189986 22.0874014,17.7083413 C23.5256252,16.2889007 24.3249818,14.3977399 24.3382965,12.3808028 C24.351849,10.3662434 23.5779329,8.46224336 22.1582545,7.02615944 C21.9480727,6.81050909 21.9499748,6.46527832 22.1634853,6.25248112 C22.2702406,6.1481035 22.4090937,6.09627133 22.5477091,6.09627133 C22.6887021,6.09627133 22.8299329,6.15024336 22.9371636,6.25771189 C24.5606042,7.90302657 25.4462685,10.0806909 25.430814,12.3881734 C25.4155972,14.697558 24.5009259,16.8611944 22.8556112,18.4848727 M22.5477091,4.90746014 C22.0909678,4.90746014 21.6596671,5.08292867 21.3329818,5.40224336 L21.3284643,5.40628531 L21.3241846,5.4108028 C20.6520308,6.08057902 20.6448979,7.17785175 21.3130098,7.86165594 C22.5087161,9.07162797 23.1608979,10.6736699 23.1494853,12.3729566 C23.1383105,14.0717678 22.4644923,15.6659636 21.2523804,16.8621455 C20.9230797,17.1871664 20.7402406,17.6213203 20.7371036,18.0849566 C20.733821,18.5488308 20.9109538,18.9853622 21.2359748,19.3146629 C21.5626601,19.645628 21.9972895,19.8296559 22.4621147,19.8327469 L22.4682965,19.8327469 L22.4713874,19.8327469 C22.929793,19.8327469 23.362758,19.6546629 23.6906322,19.3310685 C25.5620587,17.4843692 26.6022685,15.021628 26.6196252,12.3960196 C26.6369818,9.77064895 25.629821,7.29411748 23.7790797,5.41841119 C23.4504923,5.08887273 23.0130098,4.90746014 22.5477091,4.90746014" id="Fill-4" fill="#D2D2D2"></path>
                </g>
            </g>
        </g>
    </g>
</svg>