<?xml version="1.0" encoding="UTF-8"?>
<svg width="28px" height="34px" viewBox="0 0 28 34" version="1.1" xmlns="http://www.w3.org/2000/svg" xmlns:xlink="http://www.w3.org/1999/xlink">
    <title>Group 6</title>
    <defs>
        <polygon id="path-1" points="0 0.0581346364 23.9259927 0.0581346364 23.9259927 23.7223267 0 23.7223267"></polygon>
    </defs>
    <g id="Symbols" stroke="none" stroke-width="1" fill="none" fill-rule="evenodd">
        <g id="TabBar/second" transform="translate(-193.000000, -5.000000)">
            <g id="iPhone-X/Bars/Tab-Bar/3-Items" transform="translate(-2.000000, 0.000000)">
                <g id="Group-6" transform="translate(194.242667, 4.542169)">
                    <g id="Group-3" transform="translate(3.000000, 1.174404)">
                        <mask id="mask-2" fill="white">
                            <use xlink:href="#path-1"></use>
                        </mask>
                        <g id="Clip-2"></g>
                        <path d="M19.0657164,17.9867635 C18.9423709,18.1100089 18.7794618,18.1751197 18.6070109,18.1751197 C18.4303709,18.1751197 18.2672291,18.1053582 18.1441164,17.9797873 C18.0230982,17.8588673 17.9553745,17.6937649 17.9553745,17.519361 C17.9577018,17.3472825 18.0251927,17.1845055 18.1487709,17.0614926 C19.5358255,15.6962588 20.30592,13.875482 20.3177891,11.9337852 C20.33152,9.9920883 19.5844655,8.16200994 18.2183564,6.77840559 C17.9670109,6.52261319 17.9718982,6.11101997 18.2232436,5.85755295 C18.4745891,5.61571287 18.90048,5.61803825 19.1448436,5.86452911 C20.7576436,7.49462432 21.6350255,9.65490741 21.6208291,11.9430867 C21.6045382,14.231266 20.6971345,16.3775968 19.0657164,17.9867635 M23.9169164,11.5884654 C23.9171491,11.5593981 23.9173818,11.5305633 23.9150545,11.5040539 C23.9108655,11.405225 23.9066764,11.3087215 23.8999273,11.2124506 C23.8980655,11.1738492 23.8934109,11.1375732 23.8910836,11.0989718 C23.8868945,11.021769 23.8801455,10.9447987 23.8708364,10.8699213 C23.8598982,10.7396997 23.8461673,10.6094781 23.8277818,10.4792566 C23.8210327,10.4164711 23.8119564,10.3539183 23.8026473,10.2888075 L23.7679709,10.0644078 C23.7586618,10.0041803 23.7470255,9.94395282 23.7377164,9.88605072 C23.72608,9.818382 23.7121164,9.7483879 23.6981527,9.68071918 C23.6793018,9.58421569 23.6583564,9.48771219 23.6374109,9.39120869 C23.6208873,9.31168051 23.6022691,9.23447772 23.5808582,9.15704238 C23.5645673,9.08728082 23.5482764,9.01937956 23.5294255,8.95194338 C23.5056873,8.86264858 23.4824145,8.77335378 23.4563491,8.68638436 C23.4374982,8.62127357 23.4186473,8.55593024 23.3972364,8.49081945 C23.3737309,8.41105872 23.3476655,8.33153054 23.3216,8.25409521 C23.2957673,8.17456702 23.2697018,8.09713169 23.2413091,8.01737097 C23.1726545,7.81948066 23.0967855,7.62600859 23.0162618,7.43276906 C22.9853091,7.35789165 22.9520291,7.28045631 22.9187491,7.2055789 C22.8998982,7.15744342 22.8784873,7.11140079 22.8545164,7.06303277 C22.8235636,6.99303867 22.7905164,6.92281203 22.7570036,6.85514331 C22.7239564,6.78259129 22.6878836,6.71259719 22.6522764,6.64237055 C22.6096873,6.55540113 22.5643055,6.46843171 22.5191564,6.38378768 C21.9664291,5.34852608 21.2635927,4.40418704 20.4395055,3.57937282 C20.3941236,3.53077226 20.3461818,3.48472963 20.3005673,3.44101239 C19.3061236,2.47295442 18.1441164,1.67976544 16.86016,1.10260477 C16.8047709,1.07795568 16.7496145,1.05353914 16.6918982,1.02912259 C16.42496,0.914016008 16.1531345,0.808676047 15.8740945,0.712870166 C15.7872873,0.680779847 15.7007127,0.653805375 15.6115782,0.62427298 C15.3253236,0.53311787 15.0316218,0.451729379 14.7330327,0.379874968 C14.6390109,0.357551268 14.5452218,0.337785492 14.4514327,0.317787177 C14.3383273,0.292905552 14.2201018,0.270349313 14.1046691,0.248025613 C14.0250764,0.235468531 13.9431564,0.220353526 13.8635636,0.207796445 C13.7672145,0.192681439 13.6708655,0.177566434 13.5745164,0.167334738 C13.47328,0.152219732 13.3694836,0.139430112 13.26592,0.129198416 C13.1986618,0.121524644 13.1311709,0.113850872 13.06368,0.108502485 C13.0103855,0.103386637 12.9575564,0.0982707895 12.9021673,0.0929224029 L12.8707491,0.0926898644 C12.7576436,0.0824581683 12.6440727,0.0766447047 12.5309673,0.0712963181 C12.3694545,0.0629249305 12.2077091,0.0594368523 12.0436364,0.0582741596 C5.43604364,0.0143243744 0.0444509091,5.33062061 0.000232727273,11.932855 C-0.0251345455,15.7716013 1.76546909,19.1980568 4.56773818,21.4022897 L5.68878545,23.6400081 L18.0649891,23.7223267 L19.2228073,21.5092574 C22.0588218,19.3401378 23.8999273,15.935541 23.92576,12.0921439 C23.9269236,11.9233209 23.9255273,11.7547305 23.9169164,11.5884654" id="Fill-1" fill="#286BB3" mask="url(#mask-2)"></path>
                    </g>
                    <path d="M21.0729716,26.0274261 L21.0438807,28.7683579 C21.0238662,31.7706631 18.5816262,34.1930171 15.5813062,34.1948774 L14.1006953,34.1851108 C11.0791971,34.1648799 8.64742982,31.7027618 8.66767709,28.6860393 L8.696768,25.9451074 L21.0729716,26.0274261 Z" id="Fill-4" fill="#286BB3"></path>
                </g>
            </g>
        </g>
    </g>
</svg>