<?xml version="1.0" encoding="UTF-8"?>
<svg width="30px" height="38px" viewBox="0 0 30 38" version="1.1" xmlns="http://www.w3.org/2000/svg" xmlns:xlink="http://www.w3.org/1999/xlink">
    <title>Group 31</title>
    <g id="Page-1" stroke="none" stroke-width="1" fill="none" fill-rule="evenodd">
        <g id="Home-page-Copy-10" transform="translate(-42.000000, -580.000000)" stroke="#FEFEFE" stroke-width="1.13604488">
            <g id="Group-Copy" transform="translate(18.000000, 563.000000)">
                <g id="Group-31" transform="translate(24.000000, 17.000000)">
                    <path d="M25.9327088,36.5804485 L4.33376914,36.5804485 C2.55540449,36.5804485 1.11376353,35.1385804 1.11376353,33.3602157 L1.11376353,4.33381459 C1.11376353,2.55544993 2.55540449,1.11358177 4.33376914,1.11358177 L25.9327088,1.11358177 C27.7113007,1.11358177 29.1531689,2.55544993 29.1531689,4.33381459 L29.1531689,33.3602157 C29.1531689,35.1385804 27.7113007,36.5804485 25.9327088,36.5804485 Z" id="Stroke-1"></path>
                    <line x1="5.25380645" y1="6.78378626" x2="19.674533" y2="6.78378626" id="Stroke-3" stroke-linecap="round" stroke-linejoin="round"></line>
                    <line x1="22.6308626" y1="6.78378626" x2="25.0126942" y2="6.78378626" id="Stroke-5" stroke-linecap="round" stroke-linejoin="round"></line>
                    <line x1="22.6308626" y1="10.2304328" x2="25.0126942" y2="10.2304328" id="Stroke-7" stroke-linecap="round" stroke-linejoin="round"></line>
                    <line x1="22.6308626" y1="13.6770567" x2="25.0126942" y2="13.6770567" id="Stroke-9" stroke-linecap="round" stroke-linejoin="round"></line>
                    <line x1="5.25380645" y1="10.2304328" x2="19.674533" y2="10.2304328" id="Stroke-11" stroke-linecap="round" stroke-linejoin="round"></line>
                    <line x1="5.25380645" y1="13.6770567" x2="19.674533" y2="13.6770567" id="Stroke-13" stroke-linecap="round" stroke-linejoin="round"></line>
                    <line x1="25.0127851" y1="24.0169509" x2="10.5922858" y2="24.0169509" id="Stroke-15" stroke-linecap="round" stroke-linejoin="round"></line>
                    <line x1="25.0127851" y1="28.2482637" x2="5.25378373" y2="28.2482637" id="Stroke-17" stroke-linecap="round" stroke-linejoin="round"></line>
                    <line x1="25.0127851" y1="30.9103349" x2="5.25378373" y2="30.9103349" id="Stroke-19" stroke-linecap="round" stroke-linejoin="round"></line>
                    <line x1="7.63595624" y1="24.0169509" x2="5.25389734" y2="24.0169509" id="Stroke-21" stroke-linecap="round" stroke-linejoin="round"></line>
                    <line x1="7.63595624" y1="20.5703271" x2="5.25389734" y2="20.5703271" id="Stroke-23" stroke-linecap="round" stroke-linejoin="round"></line>
                    <line x1="7.63595624" y1="17.1236805" x2="5.25389734" y2="17.1236805" id="Stroke-25" stroke-linecap="round" stroke-linejoin="round"></line>
                    <line x1="25.0127851" y1="20.5703271" x2="10.5922858" y2="20.5703271" id="Stroke-27" stroke-linecap="round" stroke-linejoin="round"></line>
                    <line x1="25.0127851" y1="17.1236805" x2="10.5922858" y2="17.1236805" id="Stroke-29" stroke-linecap="round" stroke-linejoin="round"></line>
                </g>
            </g>
        </g>
    </g>
</svg>