<?xml version="1.0" encoding="UTF-8"?>
<svg width="32px" height="32px" viewBox="0 0 32 32" version="1.1" xmlns="http://www.w3.org/2000/svg" xmlns:xlink="http://www.w3.org/1999/xlink">
    <title>Group 3</title>
    <defs>
        <polygon id="path-1" points="4.37483568e-05 0 31.0001294 0 31.0001294 30.9775693 4.37483568e-05 30.9775693"></polygon>
    </defs>
    <g id="Symbols" stroke="none" stroke-width="1" fill="none" fill-rule="evenodd">
        <g id="TabBar/third" transform="translate(-331.000000, -6.000000)">
            <g id="iPhone-X/Bars/Tab-Bar/3-Items" transform="translate(-2.000000, 0.000000)">
                <g id="Group-3" transform="translate(333.690667, 6.650602)">
                    <mask id="mask-2" fill="white">
                        <use xlink:href="#path-1"></use>
                    </mask>
                    <g id="Clip-2"></g>
                    <path d="M15.5000866,20.1286008 C12.9353391,20.1286008 10.8564172,18.0513648 10.8564172,15.4886972 C10.8564172,12.9262482 12.9353391,10.8487936 15.5000866,10.8487936 C18.064834,10.8487936 20.1437559,12.9262482 20.1437559,15.4886972 C20.1437559,18.0513648 18.064834,20.1286008 15.5000866,20.1286008 M27.9834614,12.4742571 L25.6090194,12.4742571 C25.4016522,11.7750695 25.1216627,11.1082296 24.7817379,10.4765784 L26.4612374,8.79822243 C27.6385056,7.62190884 27.6385056,5.71406021 26.4612374,4.53512384 C25.2841878,3.35881025 23.3719471,3.35881025 22.1946789,4.53512384 L20.5151794,6.21347986 C19.8854219,5.87383078 19.2180407,5.59406835 18.5182857,5.38927351 L18.5182857,3.01413419 C18.5182857,2.18271522 18.1807671,1.42844948 17.6334752,0.881382793 C17.0885894,0.336938877 16.3337115,-8.74257594e-05 15.501399,-8.74257594e-05 C13.8343679,-8.74257594e-05 12.4847311,1.34845491 12.4847311,3.01413419 L12.4847311,5.38927351 C11.7847574,5.59406835 11.11497,5.87383078 10.4849937,6.21347986 L8.80549426,4.53512384 C8.21554767,3.94587422 7.44579534,3.65365362 6.6734181,3.65365362 C5.90104086,3.65365362 5.12888236,3.94587422 4.53893577,4.53512384 C3.36166749,5.71406021 3.36166749,7.62190884 4.53893577,8.79822243 L6.21843518,10.4765784 C5.87872919,11.1082296 5.59852097,11.7750695 5.39115376,12.4742571 L3.01693043,12.4742571 C2.18199304,12.4742571 1.42974005,12.8115019 0.882448105,13.3561644 C0.337562321,13.9030125 4.37483568e-05,14.6546555 4.37483568e-05,15.4886972 C4.37483568e-05,17.1519723 1.3498993,18.5031374 3.01693043,18.5031374 L5.39377866,18.5031374 C5.59852097,19.2023249 5.87872919,19.8691649 6.21843518,20.4984118 L4.53893577,22.1767678 C3.95161408,22.7660174 3.65653141,23.5353641 3.65653141,24.3095192 C3.65653141,25.0786473 3.95161408,25.8528024 4.53893577,26.4398664 C5.71861021,27.6185842 7.62822598,27.6185842 8.80549426,26.4398664 L10.4849937,24.7615104 C11.11497,25.1011595 11.7847574,25.3809219 12.4847311,25.5857167 L12.4847311,27.9632603 C12.4847311,29.6265353 13.8343679,30.9777005 15.501399,30.9777005 C17.166024,30.9777005 18.5182857,29.6265353 18.5182857,27.9632603 L18.5182857,25.5857167 C19.2180407,25.3809219 19.8854219,25.1011595 20.5151794,24.7615104 L22.1946789,26.4398664 C23.3719471,27.6185842 25.2841878,27.6185842 26.4612374,26.4398664 C27.6385056,25.2635528 27.6385056,23.3530814 26.4612374,22.1767678 L24.7817379,20.4984118 C25.1216627,19.8691649 25.4016522,19.2023249 25.6063945,18.5031374 L27.9834614,18.5031374 C29.6504926,18.5031374 31.0001294,17.1519723 31.0001294,15.4886972 C31.0001294,13.823018 29.6504926,12.4742571 27.9834614,12.4742571" id="Fill-1" fill="#286BB3" mask="url(#mask-2)"></path>
                </g>
            </g>
        </g>
    </g>
</svg>