<?xml version="1.0" encoding="UTF-8"?>
<svg width="34px" height="34px" viewBox="0 0 34 34" version="1.1" xmlns="http://www.w3.org/2000/svg" xmlns:xlink="http://www.w3.org/1999/xlink">
    <title>Group 7</title>
    <defs>
        <polygon id="path-1" points="0 0.0580979021 30.7226042 0.0580979021 30.7226042 30.7832168 0 30.7832168"></polygon>
    </defs>
    <g id="Page-1" stroke="none" stroke-width="1" fill="none" fill-rule="evenodd">
        <g id="Home-page-Copy-10" transform="translate(-330.000000, -809.000000)">
            <g id="TabBar/first" transform="translate(-9.000000, 805.000000)">
                <g id="Group-6" transform="translate(339.000000, 4.000000)">
                    <g id="Group-3" transform="translate(2.000000, 1.158685)">
                        <mask id="mask-2" fill="white">
                            <use xlink:href="#path-1"></use>
                        </mask>
                        <g id="Clip-2"></g>
                        <path d="M27.7329469,17.326442 L25.3771636,17.326442 L24.5653105,17.326442 L24.3370378,18.1057776 C24.160793,18.7069175 23.9149608,19.3022042 23.6060448,19.8747287 L23.2225552,20.5851273 L23.7933455,21.1561343 L25.4580238,22.8205958 C25.8174503,23.1800224 26.0153734,23.6586797 26.0153734,24.1683371 C26.0153734,24.6777776 25.8174503,25.156435 25.4571566,25.5167287 C25.0977301,25.8770224 24.6192895,26.075379 24.1102825,26.075379 C23.6010587,26.075379 23.1226182,25.8770224 22.7625413,25.5158615 L21.0980797,23.8514 L20.5270727,23.2806098 L19.8166741,23.6638825 C19.2441497,23.9730154 18.6488629,24.2188476 18.0477231,24.3950923 L17.2686042,24.623365 L17.2686042,25.4352182 L17.2686042,27.793386 C17.2686042,28.844351 16.4133944,29.6993441 15.3626462,29.6993441 C14.3116811,29.6993441 13.4566881,28.844351 13.4566881,27.793386 L13.4566881,25.4352182 L13.4566881,24.623365 L12.6775692,24.3950923 C12.0727441,24.2179804 11.4765902,23.9719315 10.9060168,23.6638825 L10.1956182,23.2806098 L9.62482797,23.8514 L7.95928252,25.5167287 C7.59985594,25.8770224 7.12184895,26.075379 6.61327552,26.075379 C6.10426853,26.075379 5.62561119,25.8765888 5.26466713,25.5158615 C4.90545734,25.1568685 4.70775105,24.6786448 4.70775105,24.169421 C4.70775105,23.6601972 4.90610769,23.1806727 5.26466713,22.8205958 L6.92934545,21.1561343 L7.50013566,20.5851273 L7.11664615,19.8747287 C6.80773007,19.3022042 6.56168112,18.7069175 6.38565315,18.1057776 L6.1575972,17.326442 L5.34552727,17.326442 L2.98974406,17.326442 C1.9389958,17.326442 1.08378601,16.471449 1.08378601,15.4204839 C1.08378601,14.9114769 1.28214266,14.4317357 1.63896783,14.073393 C2.0009958,13.7133161 2.48073706,13.5147427 2.98974406,13.5147427 L5.34292587,13.5147427 L6.15217762,13.5147427 L6.38218462,12.7388755 C6.56124755,12.1347007 6.80881399,11.5370294 7.11751329,10.9623371 L7.49905175,10.2525888 L6.92934545,9.68266573 L5.26466713,8.0182042 C4.5224014,7.27593846 4.52283497,6.06628811 5.26466713,5.32272168 C5.62387692,4.96372867 6.10296783,4.76580559 6.61370909,4.76580559 C7.12293287,4.76580559 7.60093986,4.96372867 7.96014965,5.32272168 L9.62482797,6.9874 L10.1956182,7.55819021 L10.9060168,7.1747007 C11.476807,6.86665175 12.0727441,6.62081958 12.6775692,6.44370769 L13.4566881,6.21543497 L13.4566881,5.40336503 L13.4566881,3.0477986 C13.4566881,1.99683357 14.3116811,1.14184056 15.3626462,1.14184056 C15.8716531,1.14184056 16.3498769,1.33976364 16.7088699,1.69897343 C17.069814,2.0597007 17.2686042,2.53857483 17.2686042,3.0477986 L17.2686042,5.40336503 L17.2686042,6.21543497 L18.0477231,6.44370769 C18.6488629,6.61973566 19.2441497,6.86578462 19.8166741,7.1747007 L20.5270727,7.55819021 L21.0980797,6.9874 L22.7625413,5.32272168 C23.1219678,4.9632951 23.6006252,4.76537203 24.1102825,4.76537203 C24.6197231,4.76537203 25.0983804,4.9632951 25.4571566,5.32207133 C26.1998559,6.06628811 26.2002895,7.27593846 25.4580238,8.0182042 L23.7933455,9.68266573 L23.2234224,10.2525888 L23.6051776,10.9623371 C23.9140937,11.5370294 24.1614434,12.1347007 24.3405063,12.7388755 L24.5705133,13.5147427 L25.379765,13.5147427 L27.7329469,13.5147427 C28.7839119,13.5147427 29.6386881,14.3697357 29.6386881,15.4204839 C29.6386881,16.471449 28.7839119,17.326442 27.7329469,17.326442 M27.7329469,12.4308266 L25.379765,12.4308266 C25.1740378,11.7373371 24.8965552,11.0759315 24.5596741,10.4492112 L26.2243524,8.78474965 C27.3910797,7.61802238 27.3910797,5.7255049 26.2243524,4.55639301 C25.6409888,3.97302937 24.8755273,3.68145594 24.1102825,3.68145594 C23.344821,3.68145594 22.5795762,3.97302937 21.9959958,4.55639301 L20.3313175,6.22085455 C19.7074154,5.88397343 19.0460098,5.60649091 18.3525203,5.40336503 L18.3525203,3.0477986 C18.3525203,2.22293846 18.0180238,1.47481958 17.4756322,0.932427972 C16.9354084,0.392420979 16.1875063,0.0579244755 15.3626462,0.0579244755 C13.7103245,0.0579244755 12.372772,1.39569371 12.372772,3.0477986 L12.372772,5.40336503 C11.6790657,5.60649091 11.0154923,5.88397343 10.3911566,6.22085455 L8.72647832,4.55639301 C8.14203077,3.97172867 7.37895385,3.68188951 6.61370909,3.68188951 C5.84824755,3.68188951 5.0830028,3.97172867 4.49812168,4.55639301 C3.33161119,5.7255049 3.33161119,7.61802238 4.49812168,8.78474965 L6.1628,10.4492112 C5.82591888,11.0759315 5.54865315,11.7373371 5.34292587,12.4308266 L2.98974406,12.4308266 C2.1624993,12.4308266 1.41676503,12.7651063 0.874373427,13.3053301 C0.334366434,13.8477217 -0.00013006993,14.5932392 -0.00013006993,15.4204839 C-0.00013006993,17.0702042 1.33742238,18.410358 2.98974406,18.410358 L5.34552727,18.410358 C5.54865315,19.1040643 5.82591888,19.7652531 6.1628,20.3895888 L4.49812168,22.0542671 C3.91627552,22.6387147 3.62383497,23.4015748 3.62383497,24.169421 C3.62383497,24.9324979 3.91627552,25.7003441 4.49812168,26.282407 C5.0830028,26.8670713 5.84824755,27.1592951 6.61327552,27.1592951 C7.3783035,27.1592951 8.14333147,26.8670713 8.72647832,26.282407 L10.3911566,24.6179455 C11.0154923,24.9546098 11.6790657,25.2320923 12.372772,25.4352182 L12.372772,27.793386 C12.372772,29.4431063 13.7103245,30.7832601 15.3626462,30.7832601 C17.0123664,30.7832601 18.3525203,29.4431063 18.3525203,27.793386 L18.3525203,25.4352182 C19.0460098,25.2320923 19.7074154,24.9546098 20.3313175,24.6179455 L21.9959958,26.282407 C22.5795762,26.8670713 23.344821,27.1592951 24.1102825,27.1592951 C24.8755273,27.1592951 25.6409888,26.8670713 26.2243524,26.282407 C27.3910797,25.1156797 27.3910797,23.2207776 26.2243524,22.0542671 L24.5596741,20.3895888 C24.8965552,19.7652531 25.1740378,19.1040643 25.3771636,18.410358 L27.7329469,18.410358 C29.3850517,18.410358 30.7226042,17.0702042 30.7226042,15.4204839 C30.7226042,13.768379 29.3850517,12.4308266 27.7329469,12.4308266" id="Fill-1" fill="#D2D2D2" mask="url(#mask-2)"></path>
                    </g>
                    <path d="M17.3612804,20.6394105 C15.1225601,20.6394105 13.3011476,18.8179979 13.3011476,16.5792776 C13.3011476,14.3405573 15.1225601,12.5191448 17.3612804,12.5191448 C19.6000007,12.5191448 21.4214133,14.3405573 21.4214133,16.5792776 C21.4214133,18.8179979 19.6000007,20.6394105 17.3612804,20.6394105 M17.3612804,11.4352287 C14.5248888,11.4352287 12.2172315,13.742886 12.2172315,16.5792776 C12.2172315,19.4156692 14.5248888,21.7233266 17.3612804,21.7233266 C20.1978888,21.7233266 22.5053294,19.4156692 22.5053294,16.5792776 C22.5053294,13.742886 20.1978888,11.4352287 17.3612804,11.4352287" id="Fill-4" fill="#D2D2D2"></path>
                </g>
            </g>
        </g>
    </g>
</svg>