<?xml version="1.0" encoding="UTF-8"?>
<svg width="35px" height="31px" viewBox="0 0 35 31" version="1.1" xmlns="http://www.w3.org/2000/svg" xmlns:xlink="http://www.w3.org/1999/xlink">
    <title>Group 7</title>
    <g id="Symbols" stroke="none" stroke-width="1" fill="none" fill-rule="evenodd">
        <g id="TabBar/first" transform="translate(-51.000000, -9.000000)">
            <g id="iPhone-X/Bars/Tab-Bar/3-Items" transform="translate(-3.000000, 0.000000)">
                <g id="Item-1" transform="translate(47.778667, 8.981928)">
                    <text id="Work" font-family="SFProText-Medium, SF Pro Text" font-size="10" font-weight="400" letter-spacing="0.12" fill="#286BB3">
                        <tspan x="11.2795312" y="39.5">Work</tspan>
                    </text>
                    <g id="Group-7" transform="translate(9.000000, 1.000000)">
                        <path d="M24.0805027,4.84124955 C23.9420342,4.8307991 23.8009532,4.82531261 23.6598721,4.82531261 L22.5050973,4.82531261 C22.3010523,2.99151982 20.746809,1.56764595 18.8683405,1.56764595 L10.7143766,1.56764595 C8.83068288,1.56764595 7.27617838,2.99413243 7.07500721,4.82531261 L5.92284505,4.82531261 C5.78176396,4.82531261 5.64068288,4.8307991 5.50221441,4.84124955 C5.7059982,2.13458288 7.96564685,7.83783784e-05 10.7143766,7.83783784e-05 L18.8683405,7.83783784e-05 C21.6194216,7.83783784e-05 23.8819441,2.13954685 24.0805027,4.84124955" id="Fill-1" fill="#D2D2D2"></path>
                        <path d="M14.7914369,15.889727 C13.9433829,15.889727 13.2533919,16.579718 13.2533919,17.4275108 C13.2533919,18.2755649 13.9433829,18.9652946 14.7914369,18.9652946 C15.6392297,18.9652946 16.3292207,18.2755649 16.3292207,17.4275108 C16.3292207,16.579718 15.6392297,15.889727 14.7914369,15.889727" id="Fill-3" fill="#D2D2D2"></path>
                        <path d="M29.2534234,9.93124595 L17.9434234,17.2779126 C17.8415315,17.3432279 17.7396396,17.4059306 17.6351351,17.4634081 C17.6142342,19.0179126 16.3471171,20.2719667 14.7926126,20.2719667 C13.2354955,20.2719667 11.9683784,19.0179126 11.9474775,17.466282 C11.842973,17.4059306 11.7384685,17.3432279 11.6365766,17.2779126 L0.331801802,9.93411982 C0.114954955,10.5454712 0,11.2035883 0,11.8880928 L0,22.9681829 C0,26.2391739 2.6518018,28.8935883 5.92279279,28.8935883 L23.6598198,28.8935883 C26.9308108,28.8935883 29.5852252,26.2391739 29.5852252,22.9681829 L29.5852252,11.8880928 C29.5852252,11.2009757 29.4676577,10.5428586 29.2534234,9.93124595 M26.6042342,6.74673243 C25.8515405,6.31277748 24.9922523,6.04106577 24.0804505,5.97836306 C23.941982,5.96791261 23.8009009,5.96294865 23.6598198,5.96294865 L5.92279279,5.96294865 C5.78171171,5.96294865 5.64063063,5.96791261 5.50216216,5.97836306 C4.59036036,6.04106577 3.73081081,6.31277748 2.97837838,6.74673243 C2.2073964,7.1880027 1.54666667,7.79961532 1.04504505,8.52827297 L12.3942342,15.8987144 C12.9010811,15.1094441 13.7867568,14.5845703 14.7926126,14.5845703 C15.7984685,14.5845703 16.6841441,15.1094441 17.1883784,15.8987144 L28.5375676,8.52827297 C28.0385586,7.79961532 27.374955,7.1880027 26.6042342,6.74673243" id="Fill-5" stroke="#D2D2D2" stroke-width="1.2" stroke-linejoin="bevel"></path>
                    </g>
                </g>
            </g>
        </g>
    </g>
</svg>